<?xml version="1.0" encoding="UTF-8"?>
<svg viewBox="0 0 638 714" xmlns="http://www.w3.org/2000/svg">
 <path d="m653.15 719.66c0-0.21616 0.675-0.65203 1.5-0.96862s1.5-0.13972 1.5 0.39301-0.675 0.96862-1.5 0.96862-1.5-0.17686-1.5-0.39301zm-483.5-14.946c-20.389-7.5956-55.56-31.169-92.5-61.999-17.018-14.203-38.985-35.673-41.604-40.661-5.4375-10.358-0.77484-57.836 11.196-114 6.4056-30.054 8.2651-35.91 12.863-40.505 4.372-4.3697 15.351-10.121 31.735-16.623 26.521-10.526 82.075-27.771 107.77-33.454 11.27-2.4927 13.078-2.6474 19-1.6256 20.13 3.473 50.962 23.752 85.327 56.122 11.391 10.729 19.974 25.175 26.194 44.086 1.5378 4.675 2.8899 8.6176 3.0046 8.7614s10.291 1.3981 22.614 2.7874c45.253 5.102 69.422 9.4968 79.564 14.468 11.168 5.474 21.307 18.803 26.799 35.232 2.7705 8.2869 5.5265 24.218 5.5361 32.002l6e-3 4.75h-9.4164l4.1423 4.25c6.9952 7.1772 9.6146 13.651 10.092 24.945 0.33327 7.8794 9e-3 11.016-1.7328 16.75l-2.1429 7.055-97.721 0.0382-97.721 0.0382-14 12.081c-25.636 22.122-45.659 36.606-60.583 43.823-7.3596 3.559-9.1182 4.0131-15.364 3.9669-4.7359-0.035-9.024-0.7864-13.053-2.2873zm21-19.252c8.7938-4.4998 23.322-14.679 39.635-27.769l12.635-10.139-30.385-0.26445-30.385-0.26445v-18.971h271l-6e-3 -2.75c-9e-3 -4.4841-1.9046-9.9898-4.502-13.077-1.3369-1.5888-8.7441-6.5297-16.461-10.98l-14.03-8.091-115.38-1.5513c-63.457-0.8532-121.06-1.5513-128-1.5513h-12.624v-19l11.75 0.023c6.4625 0.0127 59 0.67784 116.75 1.4782s116.33 1.465 130.19 1.477l25.186 0.0218-1.9616-7.0786c-3.8298-13.82-10.375-24.016-17.911-27.901-9.8876-5.0974-59.231-11.96-136.5-18.984-32.197-2.927-95.725-8.0365-99.906-8.0355-1.9998 4.9e-4 -2.0783-0.41597-1.7438-9.25 0.19268-5.0878 0.48486-9.3927 0.64928-9.5664s5.6318 0.0877 12.15 0.58109 11.956 0.82999 12.085 0.74804-1.3227-3.2708-3.2261-7.0864c-3.9786-7.9758-5.7519-14.62-3.4272-12.841l14.664 11.329 13.245 10.243 28.255 2.3858c15.54 1.3122 32.712 2.8573 38.159 3.4335s10.119 0.83323 10.381 0.57112c0.67933-0.67932-3.4013-10.705-8.0963-19.892-4.6374-9.0739-13.269-18.304-29.692-31.751-28.555-23.38-50.028-36.906-58.592-36.906-4.8524 0-38.034 8.6418-63.404 16.513-28.241 8.7616-51.848 17.383-65.783 24.024-9.6609 4.6039-11.48 5.8503-12.652 8.6702-2.4375 5.8622-10.857 46.615-15.453 74.793-2.2868 14.022-5.112 39.748-5.112 46.549 0 6.5901 0.2688 7.5152 3.3578 11.557 8.6733 11.349 56.403 51.229 81.142 67.797 19.338 12.951 41.416 24.982 46 25.069 0.55 0.0104 4.15-1.593 8-3.563zm300-181.07c-3.85-0.15006-20.05-0.7566-36-1.3479s-31.925-1.5271-35.5-2.0796c-15.876-2.4536-44.029-20.943-83.571-54.885-27.508-23.613-29.658-26.354-33.094-42.195-3.844-17.726-0.36224-74.695 5.2891-86.543 3.2308-6.7729 9.7252-12.396 18.685-16.179 3.9545-1.6694 7.1079-3.389 7.0074-3.8212s-3.8563-7.3109-8.3463-15.286c-13.526-24.024-29.279-54.458-37.801-73.026-23.839-51.944-32.419-84.083-28.08-105.17 2.8054-13.638 14.198-30.284 25.839-37.754 4.5226-2.9021 4.9552-3.553 6.5305-9.8245 4.5503-18.115 20.009-34.863 39.483-42.776 3.4814-1.4146 6.6525-2.2059 7.0469-1.7585s24.645 45.563 53.891 100.26 53.4 99.671 53.677 99.947 1.9312-0.34042 3.6767-1.3715c2.0724-1.2242 5.7915-2.0253 10.719-2.3089 12.545-0.72201 26.278 4.8788 48.549 19.8 19.637 13.157 47.89 36.484 51.92 42.867 6.8027 10.776 14.262 40.984 21.02 85.121 4.4245 28.898 6.7673 51.093 6.9139 65.5 0.13181 12.954-0.0349 14.336-2.231 18.5-5.7178 10.841-24.918 30.589-51.286 52.75l-14.576 12.25-11.383-0.19586c-6.2604-0.10772-14.533-0.31863-18.383-0.46869zm30.072-24.915c23.853-19.796 44.121-40.038 47.754-47.694 1.3488-2.8423 1.4362-5.1776 0.60948-16.273-3.2402-43.483-14.855-109.99-22.49-128.78-2.5461-6.266-3.8961-7.6552-21.678-22.309-26.263-21.643-52.628-37.363-62.663-37.363-1.5682 0-4.9923 1.1967-7.6092 2.6593s-9.2948 4.9501-14.84 7.75c-8.7022 4.394-10.176 5.5013-10.77 8.0907-0.37852 1.65-1.2124 18.3-1.8532 37s-2.2332 58.289-3.5388 87.976-2.1832 54.166-1.9501 54.399c0.81472 0.81472 14.464-1.9052 20.051-3.9958 7.793-2.9157 12.611-7.9806 14.711-15.465 2.289-8.1581 5.3036-28.626 7.1305-48.414 1.2762-13.824 4.5657-60.446 4.5657-64.712 0-1.4419 6.5163-1.7275 14.487-0.63493l4.7665 0.65332-0.71626 14.461-0.71626 14.461 4.8178-3.6787c2.6498-2.0233 4.9796-3.1934 5.1772-2.6004 0.42954 1.2886-4.8138 12.737-8.7253 19.051-2.5376 4.0962-2.8956 5.8908-3.9894 20-2.5594 33.013-6.8259 57.048-11.724 66.048-5.5119 10.127-15.856 17.339-30.223 21.071-8.735 2.2691-26.049 3.4993-34.459 2.4484l-5.6946-0.7115v-5.928c0-3.2604-0.13951-5.928-0.31002-5.928s-3.433 1.5316-7.25 3.4034c-5.8641 2.8758-12.306 5.1132-27.284 9.4764-2.1144 0.61594-1.2927 1.5036 8.384 9.0575 13.293 10.377 34.495 24.742 40.334 27.329 3.2007 1.4177 8.297 2.1884 19 2.8734 14.18 0.90757 52.753 2.3952 70.198 2.7073l8.5719 0.15337 7.9281-6.5797zm-165.07-69.538 0.7398-25.146 8.4993-12.449c10.421-15.264 19.608-32.841 21.218-40.598 0.99178-4.7774 0.93842-7.1064-0.30221-13.19-1.2666-6.2108-7.5471-23.722-9.0456-25.22-0.24958-0.24959-4.4271 2.7879-9.2833 6.75-6.767 5.521-12.617 9.0456-25.045 15.088-8.9185 4.3366-16.631 8.6716-17.138 9.6334-2.0669 3.9174-4.6215 32.997-4.6338 52.749-0.0185 29.705 0.49696 30.864 21.856 49.161 5.9777 5.1206 11.212 9.098 11.632 8.8386s1.0961-11.787 1.503-25.617zm25.918 9.0612c6.9697-2.6077 9.522-5.6609 16.254-19.444l5.3724-11 0.94961-19.5c0.52228-10.725 1.1474-23.1 1.3891-27.5l0.43946-8-2.3863 7.534c-3.1524 9.9524-10.76 24.6-20.191 38.874l-7.6584 11.592-0.54454 14.751c-0.2995 8.1133-0.22392 14.751 0.16795 14.75s3.1857-0.92682 6.2085-2.0578zm26.569-141.94c1.1339-34.203 1.2662-35.698 3.6184-40.926 2.7522-6.1161 2.9406-5.7682-5.2342-9.6644-2.8191-1.3436-5.8073-2.1812-6.6405-1.8615-2.9928 1.1484-9.9268 18.645-13.32 33.612l-1.737 7.6607 6.6539 13.339c6.4295 12.89 13.574 32.084 13.76 36.966 0.0785 2.0659 0.19596 1.9847 0.90661-0.62665 0.44904-1.65 1.3461-18.975 1.9934-38.5zm-49.545 5.058c3.9086-3.3087 3.9741-3.482 7.0618-18.668l3.1166-15.328-22.105-44.281c-28.717-57.526-43.769-90.258-53.935-117.28-0.68997-1.8342-1.0435-1.6683-4.2633 2-4.3309 4.9342-8.6202 13.302-10.368 20.227-4.3773 17.345 11.856 64.593 42.644 124.12 9.3028 17.986 27.701 51.411 29.685 53.929 1.0965 1.3918 0.62379 1.665 8.1631-4.7172zm20.933-62.808c1.8787-3.6131 8.3459-10.031 12.121-12.029 1.9206-1.0164 5.446-1.5734 9.798-1.548 5.8648 0.0343 7.8896 0.58227 14.75 3.9918 4.3736 2.1736 7.952 3.902 7.952 3.8408 0-0.51572-94.32-176.2-94.93-176.82-1.405-1.4304-13.396 11.458-16.359 17.584-3.7481 7.7483-4.5678 16.608-2.2052 23.831 2.9951 9.1567 9.3376 24.652 17.151 41.901 7.1798 15.851 49.414 102 50.005 102 0.15794 0 0.93063-1.2375 1.7171-2.75z"/>
</svg>
